<svg version="1.1" viewBox="0 0 1024 1024" xmlns="http://www.w3.org/2000/svg">
    <path
        d="M868.48 989.44H155.73333333c-47.46666668 0-86.29333334-38.82666667-86.29333335-86.29333334V220.05333332c0-47.46666668 38.82666667-86.29333334 86.29333335-86.29333332h712.74666667c47.46666668 0 86.29333334 38.82666667 86.29333334 86.29333334v682.98666666c0 47.57333333-38.82666667 86.4-86.29333334 86.4z"
        fill="#F2F2F1"></path>
    <path
        d="M954.77333334 407.35999999h-885.33333336V220.05333332c0-47.46666668 38.82666667-86.29333334 86.29333335-86.29333332h712.74666667c47.46666668 0 86.29333334 38.82666667 86.29333334 86.29333334v187.30666665z"
        fill="#FF5F5F"></path>
    <path
        d="M378.98666668 797.12000001h78.39999999c21.54666667 1.17333331 32.96000001 10.77333334 34.02666667 29.01333331-1.17333331 19.30666668-11.41333335 29.01333334-30.61333334 29.01333334H314.24c-21.54666667 0-32.32000001-9.6-32.32000001-29.01333334-1.17333331-5.65333334 1.70666668-13.01333333 8.53333335-22.18666666 9.06666668-10.24 18.13333333-20.48 27.30666664-30.61333333 37.44000001-39.78666668 64.74666668-72.64000001 81.81333335-98.77333333 10.24-13.65333333 15.36000001-27.3066667 15.36-40.85333335-2.24000001-20.48-12.48000001-31.78666667-30.61333334-34.02666665-18.13333333 0-31.25333332 13.12000001-39.14666666 39.14666668-6.82666667 21.54666667-16.42666667 31.78666667-29.01333333 30.61333332-21.54666667 0-32.32000001-10.24-32.31999999-30.61333332 5.65333334-57.92000001 39.78666668-90.88000001 102.18666665-98.77333336 61.33333335 4.58666669 93.65333333 34.66666668 97.06666668 90.23999998 0 31.78666667-25.60000003 76.69333334-76.69333334 134.61333336-13.76000001 15.78666667-22.93333334 26.56000001-27.41333332 32.21333333zM551.04 810.77333334l109.01333334-206.18666667H549.33333333c-21.54666667 0-32.32000001-10.24-32.32000001-30.61333335 0-18.13333333 10.77333334-27.84000001 32.32000001-29.01333331h156.8c18.13333333 1.17333331 29.01333334 11.41333335 32.31999999 30.61333332 0 6.82666667-3.41333333 16.42666667-10.24 29.01333334l-107.30666664 219.73333332c-1.17333331 2.24000001-2.24000001 3.94666668-3.41333334 5.12000001-9.06666668 18.13333333-20.48 26.66666667-34.02666667 25.60000001-21.54666667 0-33.49333334-9.6-35.73333333-29.01333334 0-2.24000001 0.53333334-5.12000001 1.70666667-8.53333335-0.10666668-2.24000001 0.42666666-4.48000001 1.59999999-6.71999998z"
        fill="#694B4B"></path>
    <path d="M366.50666668 271.03999999m-80.00000001 2e-8a80 80 0 1 0 160 0 80 80 0 1 0-160 0Z" fill="#F34C4E">
    </path>
    <path d="M314.77333332 133.86666666h103.57333335v172.69333335h-103.57333335z" fill="#F34C4E"></path>
    <path d="M322.77333333 271.03999999m-80 2e-8a80 80 0 1 0 160 0 80 80 0 1 0-160 0Z" fill="#FFFFFF"></path>
    <path d="M741.65333332 271.03999999m-80 2e-8a80 80 0 1 0 160.00000002 0 80 80 0 1 0-160.00000002 0Z"
        fill="#F34C4E"></path>
    <path d="M690.34666667 133.76h102.61333334v172.69333334h-102.61333334z" fill="#F34C4E"></path>
    <path
        d="M698.98666668 271.03999999m-80.00000002 2e-8a80 80 0 1 0 160.00000002 0 80 80 0 1 0-160.00000002 0Z"
        fill="#FFFFFF"></path>
    <path
        d="M329.17333333 312.85333331c-28.48000002 0-51.73333335-23.25333334-51.73333334-51.73333329V234.66666667c0-28.48000002 23.25333334-51.73333335 51.73333334-51.73333335s51.73333335 23.25333334 51.73333335 51.73333335v26.45333335c0.10666668 28.48000002-23.25333334 51.73333335-51.73333335 51.73333332z"
        fill="#E5E4DD"></path>
    <path
        d="M322.77333333 306.45333332c-28.48000002 0-51.73333335-23.25333334-51.73333334-51.73333332V85.01333332c0-28.48000002 23.25333334-51.73333335 51.73333334-51.73333332s51.73333335 23.25333334 51.73333335 51.73333334v169.70666666c0.10666668 28.48000002-23.25333334 51.73333335-51.73333335 51.73333334z"
        fill="#FFF082"></path>
    <path
        d="M705.38666668 312.85333331c-28.26666668 0-51.30666668-23.03999999-51.30666668-51.30666664v-27.41333333c0-28.26666668 23.03999999-51.30666668 51.30666668-51.30666667s51.30666668 23.03999999 51.30666665 51.30666667v27.41333333c0 28.26666668-23.03999999 51.30666668-51.30666665 51.30666667z"
        fill="#E5E4DD"></path>
    <path
        d="M698.98666668 306.45333332c-28.26666668 0-51.30666668-23.03999999-51.30666668-51.30666665V84.58666668c0-28.26666668 23.03999999-51.30666668 51.30666666-51.30666668s51.30666668 23.03999999 51.30666667 51.30666668v170.55999999c0 28.26666668-23.03999999 51.30666668-51.30666667 51.30666667z"
        fill="#FFF082"></path>
</svg>